# xmcd
#
# Track frame offsets:
#	150
#	13082
#	24748
#	37763
#	50699
#	59972
#	77535
#	92003
#	106211
#	126518
#	142674
#	154527
#	167689
#	177991
#	191166
#	205333
#	228795
#	236411
#	247645
#	258231
#	268052
#	283207
#	295528
#	307317
#	330812
#	343366
#
# Disc length: 4775 seconds
#
# Revision: 0
# Processed by: cddbd v1.4PL0 Copyright (c) Steve Scherf et al.
# Submitted via: AudioConverter v4.05 Copyright (c) Dennis Rebentrost
#
DISCID=6f12a51a
DTITLE=_____ - - _________ - _______ - ____
DYEAR=1900
DGENRE=
TTITLE0=01.___________ - _____, - ___
TTITLE1=02._____
TTITLE2=03.___ - __ - ______
TTITLE3=04._____ - _______ - ___ - ___
TTITLE4=05.______
TTITLE5=06.____ - _ - - ______
TTITLE6=07._____ - ____, - ___ - __
TTITLE7=08.__, - ___ - ____ - _____
TTITLE8=09.______ - ___ - ______
TTITLE9=10.____ - _ - _____ - ____ - ______
TTITLE10=11.__, - ______, - ________
TTITLE11=12._______ - - _ - ___
TTITLE12=13._____ - ___
TTITLE13=14.__, - - _______ - ______
TTITLE14=15.________, - __________
TTITLE15=16._______
TTITLE16=17.__, - ____ - , - _ - ____
TTITLE17=18.______ - _______
TTITLE18=19.________
TTITLE19=20.__, - __-____
TTITLE20=21.__ - _ - ______, - __ - ___
TTITLE21=22.____
TTITLE22=23.______
TTITLE23=24.__, - ____, - ____
TTITLE24=25.____ - ____ - ____ - ____ - ___
TTITLE25=26._____, - ____, - _ - ______
EXTD=
EXTT0=
EXTT1=
EXTT2=
EXTT3=
EXTT4=
EXTT5=
EXTT6=
EXTT7=
EXTT8=
EXTT9=
EXTT10=
EXTT11=
EXTT12=
EXTT13=
EXTT14=
EXTT15=
EXTT16=
EXTT17=
EXTT18=
EXTT19=
EXTT20=
EXTT21=
EXTT22=
EXTT23=
EXTT24=
EXTT25=
PLAYORDER=
